<svg width="23" height="20" viewBox="0 0 23 20" fill="none" xmlns="http://www.w3.org/2000/svg">
<path fill-rule="evenodd" clip-rule="evenodd" d="M21.759 2.63401C21.117 2.63401 20.596 2.11401 20.596 1.47101C20.596 0.828011 21.117 0.307011 21.759 0.307011C22.402 0.307011 22.923 0.828011 22.923 1.47101C22.923 2.11401 22.402 2.63401 21.759 2.63401ZM20.16 7.19801C19.952 7.68301 19.644 8.13401 19.226 8.45801C18.977 8.65201 18.691 8.79701 18.388 8.88101C18.082 8.96801 17.762 8.99801 17.445 8.98601C17.1 8.97201 16.756 8.90401 16.44 8.76401C15.956 8.55401 15.559 8.17601 15.277 7.73401C15.044 7.37201 14.885 6.96701 14.775 6.55201C14.645 6.05501 14.585 5.54301 14.563 5.03001C14.54 4.34901 14.565 3.66101 14.706 2.99201C14.81 2.50601 14.971 2.02801 15.225 1.59901C15.454 1.21501 15.76 0.874011 16.137 0.633011C16.485 0.407011 16.89 0.275011 17.303 0.241011C17.722 0.204011 18.151 0.245011 18.549 0.387011C19.019 0.551011 19.427 0.871011 19.726 1.26701C20.107 1.76301 20.328 2.36401 20.452 2.97301C20.601 3.71801 20.623 4.48401 20.58 5.24101C20.536 5.90801 20.423 6.58001 20.16 7.19801ZM18.698 3.83001C18.667 3.42501 18.616 3.01701 18.487 2.63001C18.406 2.38701 18.282 2.14901 18.079 1.98801C17.904 1.84801 17.669 1.80501 17.451 1.83301C17.274 1.85401 17.108 1.94101 16.988 2.07401C16.808 2.26701 16.704 2.51701 16.629 2.76701C16.51 3.17001 16.47 3.58901 16.446 4.00701C16.423 4.48101 16.426 4.95601 16.461 5.42901C16.491 5.81301 16.541 6.19901 16.666 6.56601C16.746 6.79801 16.859 7.02701 17.042 7.19601C17.178 7.32301 17.364 7.38901 17.549 7.39101C17.722 7.39601 17.899 7.35601 18.042 7.25501C18.2 7.14601 18.313 6.98301 18.397 6.81301C18.508 6.57401 18.571 6.31601 18.618 6.05801C18.683 5.67401 18.711 5.28501 18.719 4.89501C18.731 4.54001 18.721 4.18501 18.698 3.83001ZM13.447 7.92501C13.154 8.30901 12.748 8.59701 12.306 8.78301C11.803 8.98601 11.247 9.01801 10.713 8.96701C10.159 8.91401 9.60702 8.72501 9.17802 8.36201C8.74602 8.00001 8.45102 7.49401 8.28202 6.95901C8.07202 6.29901 8.04002 5.59601 8.07802 4.90901C8.12002 4.24901 8.26202 3.59001 8.54602 2.99001C8.79302 2.46001 9.14602 1.98001 9.58802 1.59801C10.02 1.22201 10.527 0.939011 11.063 0.746011C11.814 0.472011 12.617 0.367011 13.412 0.360011C13.441 0.849011 13.478 1.33801 13.507 1.82601C13.512 1.85101 13.5 1.88501 13.471 1.88501C12.878 1.90301 12.278 1.96701 11.717 2.17201C11.289 2.32601 10.889 2.57401 10.585 2.91601C10.4 3.12501 10.255 3.37001 10.157 3.63101C10.434 3.51601 10.731 3.46201 11.03 3.44601C11.452 3.43401 11.881 3.46701 12.288 3.58601C12.724 3.71701 13.14 3.94701 13.447 4.28901C13.625 4.48901 13.768 4.72001 13.862 4.97001C13.955 5.21701 14.013 5.47601 14.04 5.73801C14.079 6.08401 14.064 6.43701 13.983 6.77601C13.889 7.19201 13.711 7.59001 13.447 7.92501ZM11.99 5.28501C11.859 5.10601 11.653 5.00001 11.442 4.95001C11.134 4.87701 10.814 4.88601 10.502 4.92401C10.306 4.95001 10.108 4.98401 9.92602 5.06601C9.92602 5.17501 9.91502 5.28301 9.91402 5.39201C9.92002 5.58801 9.92502 5.78501 9.94902 5.98001C9.98402 6.29201 10.05 6.60801 10.201 6.88601C10.317 7.10201 10.501 7.28901 10.733 7.37501C10.92 7.44101 11.123 7.45301 11.319 7.42601C11.571 7.39101 11.792 7.23201 11.946 7.03401C12.137 6.78501 12.223 6.46901 12.233 6.15901C12.233 5.85401 12.179 5.53301 11.99 5.28501ZM5.42102 8.77801C5.07302 8.89501 4.70902 8.95601 4.34402 8.98201C3.61902 9.03901 2.88902 8.95501 2.18502 8.77701C1.91802 8.70901 1.65202 8.63301 1.40002 8.52001C1.51402 8.01901 1.63202 7.52001 1.74902 7.01901C1.75102 6.98801 1.79202 6.98101 1.81502 6.99401C2.03302 7.08401 2.25502 7.16201 2.47902 7.23301C2.72802 7.31801 2.98702 7.36801 3.24902 7.39201C3.54702 7.41801 3.84802 7.42801 4.14602 7.39701C4.37902 7.37201 4.61302 7.32301 4.82002 7.21001C5.06802 7.07301 5.26102 6.83001 5.31802 6.55001C5.36202 6.33401 5.35602 6.10301 5.28002 5.89501C5.18602 5.64901 4.97902 5.45901 4.74302 5.35101C4.43102 5.20501 4.08102 5.17901 3.74202 5.16201C3.46802 5.16001 3.19402 5.16201 2.92002 5.16101C2.88802 5.16701 2.86102 5.13701 2.86702 5.10701C2.86702 4.64001 2.86602 4.17401 2.86802 3.70701C2.86302 3.67701 2.89002 3.65501 2.91902 3.65901C3.21202 3.65701 3.50502 3.66001 3.79802 3.65701C4.10302 3.64101 4.42302 3.59201 4.67802 3.41101C4.82602 3.30301 4.93802 3.14401 4.98502 2.96701C5.02502 2.80601 5.03502 2.63601 5.00202 2.47401C4.94502 2.21501 4.74202 2.00601 4.50202 1.90701C4.20302 1.77901 3.86802 1.78701 3.55102 1.82801C3.23202 1.86701 2.92602 1.97701 2.63602 2.11401C2.51602 2.17201 2.39702 2.23201 2.28502 2.30301C2.25602 2.31901 2.22602 2.34801 2.19202 2.33101C2.16002 2.28801 2.14302 2.23801 2.11902 2.19101C1.92502 1.79201 1.73302 1.39201 1.53902 0.993011C1.82102 0.815011 2.11802 0.658011 2.43002 0.539011C2.96802 0.335011 3.54102 0.210011 4.11702 0.229011C4.63202 0.239011 5.15502 0.316011 5.62302 0.540011C6.05702 0.741011 6.42802 1.09001 6.63402 1.52501C6.80702 1.88901 6.87402 2.29801 6.86002 2.70001C6.82102 3.33901 6.44302 3.95101 5.88402 4.26201C6.19202 4.39701 6.47802 4.59201 6.69702 4.85001C6.85802 5.03701 6.98302 5.25401 7.06602 5.48701C7.18902 5.83701 7.21602 6.21401 7.18602 6.58201C7.14602 7.08201 6.98402 7.58501 6.65902 7.97301C6.34202 8.36301 5.89202 8.62201 5.42102 8.77801ZM4.96902 10.903L4.95902 12.062C4.95902 12.062 2.48202 12.508 2.48202 13.561C2.48202 15.124 9.07202 15.184 9.07202 15.184V13.407L12.914 16.576L9.07202 19.676V18.037C9.07202 18.037 1.86602 17.482 0.983024 15.021C-0.257976 11.565 4.96902 10.903 4.96902 10.903ZM19.347 13.45C19.347 12.628 17.203 11.95 17.203 11.95L17.207 10.903C17.207 10.903 22.476 11.58 20.709 15.159C19.441 17.726 13.904 17.913 13.904 17.913V15.129C13.904 15.129 19.347 15.016 19.347 13.45Z" fill="#999999"/>
</svg>
