<svg width="18" height="14" viewBox="0 0 18 14" fill="none" xmlns="http://www.w3.org/2000/svg">
<path fill-rule="evenodd" clip-rule="evenodd" d="M16.147 9.25957C15.413 10.1823 14.4084 10.9122 13.1414 11.4453C11.8785 11.9825 10.4966 12.2491 9.00821 12.2491C8.33574 12.2491 7.64687 12.1835 6.94571 12.0604C5.978 12.7494 4.8914 13.2497 3.68999 13.5614C3.40705 13.6311 3.07083 13.6967 2.68128 13.75H2.64439C2.55828 13.75 2.47627 13.7172 2.40246 13.6557C2.32866 13.5942 2.28355 13.5121 2.26714 13.4096C2.25895 13.385 2.25484 13.3604 2.25484 13.3317C2.25484 13.303 2.25484 13.2784 2.25895 13.2538C2.26305 13.2292 2.27125 13.2087 2.28355 13.1841L2.31226 13.1267C2.31226 13.1267 2.32456 13.1021 2.35326 13.0611C2.37785 13.0201 2.39426 12.9995 2.39836 13.0037C2.40246 13.0077 2.41886 12.9872 2.45167 12.9462C2.48037 12.9011 2.49677 12.8847 2.49677 12.8929C2.53777 12.8478 2.62799 12.7494 2.7674 12.6017C2.90681 12.4541 3.00932 12.3393 3.07083 12.2573L3.07182 12.256C3.13326 12.1741 3.21906 12.0597 3.33325 11.9169C3.44396 11.7734 3.54237 11.6217 3.62438 11.4658C3.70639 11.31 3.78839 11.1378 3.86631 10.9491C2.89861 10.3873 2.13594 9.69426 1.58239 8.87408C1.02882 8.05391 0.75 7.18045 0.75 6.24954C0.75 5.16693 1.11904 4.16223 1.853 3.23952C2.58698 2.31685 3.58747 1.5869 4.8586 1.05379C6.12972 0.516556 7.50746 0.25 9 0.25C10.4925 0.25 11.8703 0.520676 13.1414 1.05379C14.4125 1.59097 15.413 2.31685 16.147 3.23952C16.881 4.15811 17.25 5.16281 17.25 6.24954C17.25 7.33627 16.881 8.3369 16.147 9.25957ZM5.25 4.75V3.25H12.75V4.75H5.25ZM5.25 7V5.5H12.75V7H5.25ZM10.5 7.75H5.25V9.25H10.5V7.75Z" fill="#999999"/>
</svg>
