<svg width="20" height="14" viewBox="0 0 20 14" fill="none" xmlns="http://www.w3.org/2000/svg">
<path fill-rule="evenodd" clip-rule="evenodd" d="M19.799 3.01899C19.799 3.01899 19.605 1.64798 19.005 1.04198C18.244 0.249985 17.393 0.245985 17.002 0.199985C14.202 -1.54555e-05 10.003 -1.52588e-05 10.003 -1.52588e-05H9.995C9.995 -1.52588e-05 5.798 -1.51157e-05 2.998 0.201985C2.607 0.247985 1.756 0.251985 0.995 1.04398C0.395 1.64798 0.2 3.01899 0.2 3.01899C0.2 3.01899 0 4.62998 0 6.24198V7.75199C0 9.36399 0.2 10.973 0.2 10.973C0.2 10.973 0.395 12.344 0.995 12.949C1.756 13.742 2.754 13.716 3.201 13.8C4.801 13.953 10.001 14 10.001 14C10.001 14 14.202 13.994 17.002 13.792C17.393 13.746 18.244 13.742 19.005 12.949C19.605 12.346 19.799 10.973 19.799 10.973C19.799 10.973 20 9.36199 20 7.75199V6.24198C19.998 4.62998 19.799 3.01899 19.799 3.01899ZM7.911 9.75799V4.15299L13 7L7.911 9.75799Z" fill="#999999"/>
</svg>
